<svg width="128" height="128" viewBox="0 0 128 128" fill="none" xmlns="http://www.w3.org/2000/svg">
<rect width="128" height="128" rx="64" fill="#202020"/>
<path d="M28 45.119C28 42.1949 30.3704 39.8245 33.2945 39.8245H82.0044V50.4136H28V45.119Z" fill="#4ADE91"/>
<rect x="28" y="58.885" width="25.4138" height="10.5891" fill="#4ADE91"/>
<path d="M28 77.9453H82.0044V88.5344H33.2945C30.3704 88.5344 28 86.164 28 83.2399V77.9453Z" fill="#4ADE91"/>
<mask id="path-5-outside-1_72_65" maskUnits="userSpaceOnUse" x="55.7656" y="35" width="59" height="61" fill="black">
<rect fill="white" x="55.7656" y="35" width="59" height="61"/>
<path d="M86.9162 88.7794C83.4087 88.7794 80.1394 88.2165 77.1082 87.0907C74.1204 85.9215 71.5222 84.276 69.3138 82.1542C67.1054 80.0324 65.3733 77.5425 64.1175 74.6845C62.905 71.8266 62.2988 68.6872 62.2988 65.2663C62.2988 61.8454 62.905 58.706 64.1175 55.848C65.3733 52.9901 67.1054 50.5002 69.3138 48.3784C71.5655 46.2565 74.1853 44.6327 77.1732 43.5068C80.161 42.3377 83.4304 41.7531 86.9811 41.7531C90.9217 41.7531 94.4725 42.4459 97.6335 43.8316C100.838 45.174 103.523 47.1659 105.688 49.8073L98.9326 56.0429C97.3737 54.2675 95.6416 52.9468 93.7363 52.0807C91.831 51.1714 89.7525 50.7167 87.5008 50.7167C85.379 50.7167 83.4304 51.0631 81.655 51.7559C79.8796 52.4488 78.3423 53.4447 77.0433 54.7438C75.7442 56.0429 74.7266 57.5801 73.9904 59.3555C73.2976 61.1309 72.9512 63.1012 72.9512 65.2663C72.9512 67.4314 73.2976 69.4016 73.9904 71.177C74.7266 72.9524 75.7442 74.4897 77.0433 75.7887C78.3423 77.0878 79.8796 78.0838 81.655 78.7766C83.4304 79.4694 85.379 79.8159 87.5008 79.8159C89.7525 79.8159 91.831 79.3828 93.7363 78.5168C95.6416 77.6074 97.3737 76.2434 98.9326 74.4247L105.688 80.6603C103.523 83.3017 100.838 85.3153 97.6335 86.7009C94.4725 88.0866 90.9 88.7794 86.9162 88.7794Z"/>
</mask>
<path d="M86.9162 88.7794C83.4087 88.7794 80.1394 88.2165 77.1082 87.0907C74.1204 85.9215 71.5222 84.276 69.3138 82.1542C67.1054 80.0324 65.3733 77.5425 64.1175 74.6845C62.905 71.8266 62.2988 68.6872 62.2988 65.2663C62.2988 61.8454 62.905 58.706 64.1175 55.848C65.3733 52.9901 67.1054 50.5002 69.3138 48.3784C71.5655 46.2565 74.1853 44.6327 77.1732 43.5068C80.161 42.3377 83.4304 41.7531 86.9811 41.7531C90.9217 41.7531 94.4725 42.4459 97.6335 43.8316C100.838 45.174 103.523 47.1659 105.688 49.8073L98.9326 56.0429C97.3737 54.2675 95.6416 52.9468 93.7363 52.0807C91.831 51.1714 89.7525 50.7167 87.5008 50.7167C85.379 50.7167 83.4304 51.0631 81.655 51.7559C79.8796 52.4488 78.3423 53.4447 77.0433 54.7438C75.7442 56.0429 74.7266 57.5801 73.9904 59.3555C73.2976 61.1309 72.9512 63.1012 72.9512 65.2663C72.9512 67.4314 73.2976 69.4016 73.9904 71.177C74.7266 72.9524 75.7442 74.4897 77.0433 75.7887C78.3423 77.0878 79.8796 78.0838 81.655 78.7766C83.4304 79.4694 85.379 79.8159 87.5008 79.8159C89.7525 79.8159 91.831 79.3828 93.7363 78.5168C95.6416 77.6074 97.3737 76.2434 98.9326 74.4247L105.688 80.6603C103.523 83.3017 100.838 85.3153 97.6335 86.7009C94.4725 88.0866 90.9 88.7794 86.9162 88.7794Z" fill="#FFFAFA"/>
<path d="M77.1082 87.0907L74.793 93.0073L74.8444 93.0273L74.896 93.0465L77.1082 87.0907ZM69.3138 82.1542L64.9119 86.7357L64.912 86.7357L69.3138 82.1542ZM64.1175 74.6845L58.2686 77.1659L58.2845 77.2032L58.3008 77.2404L64.1175 74.6845ZM64.1175 55.848L58.3008 53.2922L58.2845 53.3293L58.2686 53.3667L64.1175 55.848ZM69.3138 48.3784L64.9566 43.7544L64.9342 43.7755L64.912 43.7969L69.3138 48.3784ZM77.1732 43.5068L79.4135 49.4522L79.451 49.4381L79.4884 49.4235L77.1732 43.5068ZM97.6335 43.8316L95.0828 49.6505L95.1305 49.6715L95.1786 49.6916L97.6335 43.8316ZM105.688 49.8073L109.997 54.4759L114.399 50.4127L110.601 45.7797L105.688 49.8073ZM98.9326 56.0429L94.1583 60.2349L98.4559 65.1293L103.242 60.7114L98.9326 56.0429ZM93.7363 52.0807L90.9997 57.8146L91.0532 57.8401L91.1072 57.8647L93.7363 52.0807ZM77.0433 54.7438L81.5358 59.2364L81.5358 59.2364L77.0433 54.7438ZM73.9904 59.3555L68.1215 56.922L68.0959 56.9836L68.0717 57.0458L73.9904 59.3555ZM73.9904 71.177L68.0717 73.4868L68.0959 73.5489L68.1215 73.6105L73.9904 71.177ZM77.0433 75.7887L72.5507 80.2813L72.5507 80.2813L77.0433 75.7887ZM93.7363 78.5168L96.3654 84.3008L96.4194 84.2762L96.4729 84.2507L93.7363 78.5168ZM98.9326 74.4247L103.242 69.7562L98.3985 65.2852L94.1087 70.2899L98.9326 74.4247ZM105.688 80.6603L110.601 84.6879L114.399 80.0549L109.997 75.9917L105.688 80.6603ZM97.6335 86.7009L95.1118 80.8694L95.0972 80.8756L95.0828 80.882L97.6335 86.7009ZM86.9162 82.426C84.0997 82.426 81.5859 81.9762 79.3204 81.1348L74.896 93.0465C78.6928 94.4568 82.7177 95.1329 86.9162 95.1329V82.426ZM79.4234 81.174C77.1743 80.294 75.2944 79.0895 73.7156 77.5727L64.912 86.7357C67.7501 89.4625 71.0664 91.549 74.793 93.0073L79.4234 81.174ZM73.7156 77.5727C72.1186 76.0383 70.8621 74.2404 69.9342 72.1287L58.3008 77.2404C59.8845 80.8446 62.0921 84.0265 64.9119 86.7357L73.7156 77.5727ZM69.9664 72.2032C69.1194 70.2067 68.6523 67.9219 68.6523 65.2663H55.9454C55.9454 69.4525 56.6907 73.4465 58.2686 77.1659L69.9664 72.2032ZM68.6523 65.2663C68.6523 62.6107 69.1194 60.3259 69.9664 58.3294L58.2686 53.3667C56.6907 57.0861 55.9454 61.0801 55.9454 65.2663H68.6523ZM69.9342 58.4038C70.8621 56.2921 72.1186 54.4943 73.7156 52.9599L64.912 43.7969C62.0921 46.5061 59.8845 49.688 58.3008 53.2922L69.9342 58.4038ZM73.671 53.0023C75.2917 51.4751 77.1859 50.2916 79.4135 49.4522L74.9329 37.5615C71.1847 38.9738 67.8393 41.0379 64.9566 43.7544L73.671 53.0023ZM79.4884 49.4235C81.6637 48.5722 84.1381 48.1066 86.9811 48.1066V35.3996C82.7226 35.3996 78.6584 36.1031 74.858 37.5902L79.4884 49.4235ZM86.9811 48.1066C90.1676 48.1066 92.8321 48.664 95.0828 49.6505L100.184 38.0127C96.1128 36.2279 91.6758 35.3996 86.9811 35.3996V48.1066ZM95.1786 49.6916C97.4432 50.6403 99.2783 52.0102 100.774 53.835L110.601 45.7797C107.767 42.3216 104.233 39.7076 100.088 37.9716L95.1786 49.6916ZM101.378 45.1388L94.6232 51.3743L103.242 60.7114L109.997 54.4759L101.378 45.1388ZM103.707 51.8509C101.63 49.4861 99.1901 47.5807 96.3654 46.2967L91.1072 57.8647C92.0932 58.3128 93.1169 59.0488 94.1583 60.2349L103.707 51.8509ZM96.4729 46.3468C93.6567 45.0027 90.6351 44.3632 87.5008 44.3632V57.0701C88.8699 57.0701 90.0053 57.34 90.9997 57.8146L96.4729 46.3468ZM87.5008 44.3632C84.6781 44.3632 81.9357 44.8263 79.3452 45.8372L83.9647 57.6747C84.925 57.2999 86.0799 57.0701 87.5008 57.0701V44.3632ZM79.3452 45.8372C76.7827 46.8372 74.4943 48.3077 72.5507 50.2512L81.5358 59.2364C82.1904 58.5818 82.9764 58.0604 83.9647 57.6747L79.3452 45.8372ZM72.5507 50.2512C70.6351 52.1668 69.1619 54.4128 68.1215 56.922L79.8594 61.789C80.2913 60.7474 80.8533 59.9189 81.5358 59.2364L72.5507 50.2512ZM68.0717 57.0458C67.0552 59.6505 66.5977 62.4175 66.5977 65.2663H79.3046C79.3046 63.7848 79.54 62.6113 79.9092 61.6653L68.0717 57.0458ZM66.5977 65.2663C66.5977 68.115 67.0552 70.882 68.0717 73.4868L79.9092 68.8673C79.54 67.9213 79.3046 66.7478 79.3046 65.2663H66.5977ZM68.1215 73.6105C69.1619 76.1198 70.6351 78.3657 72.5507 80.2813L81.5358 71.2962C80.8533 70.6136 80.2913 69.7851 79.8594 68.7436L68.1215 73.6105ZM72.5507 80.2813C74.4943 82.2249 76.7827 83.6953 79.3452 84.6953L83.9647 72.8579C82.9764 72.4722 82.1904 71.9507 81.5358 71.2962L72.5507 80.2813ZM79.3452 84.6953C81.9357 85.7063 84.6781 86.1693 87.5008 86.1693V73.4624C86.0799 73.4624 84.925 73.2326 83.9647 72.8579L79.3452 84.6953ZM87.5008 86.1693C90.5896 86.1693 93.5731 85.57 96.3654 84.3008L91.1072 72.7328C90.0889 73.1957 88.9154 73.4624 87.5008 73.4624V86.1693ZM96.4729 84.2507C99.2788 82.9115 101.698 80.9605 103.756 78.5595L94.1087 70.2899C93.0489 71.5263 92.0044 72.3034 90.9997 72.7829L96.4729 84.2507ZM94.6232 79.0933L101.378 85.3288L109.997 75.9917L103.242 69.7562L94.6232 79.0933ZM100.774 76.6326C99.2657 78.4728 97.4078 79.8765 95.1118 80.8694L100.155 92.5325C104.268 90.754 107.78 88.1306 110.601 84.6879L100.774 76.6326ZM95.0828 80.882C92.8405 81.8649 90.1565 82.426 86.9162 82.426V95.1329C91.6436 95.1329 96.1044 94.3083 100.184 92.5199L95.0828 80.882Z" fill="#202020" mask="url(#path-5-outside-1_72_65)"/>
</svg>
